<svg width="1458" height="1638" viewBox="0 0 1458 1638" fill="none" xmlns="http://www.w3.org/2000/svg">
<g clip-path="url(#clip0_2209_39)">
<rect width="1457.07" height="1637.99" fill="#020202"/>
<rect width="100.247" height="1638" fill="#F5F5F5" fill-opacity="0.08"/>
<rect x="123.031" width="100.247" height="1638" fill="#F5F5F5" fill-opacity="0.08"/>
<rect x="247.2" width="100.247" height="1638" fill="#F5F5F5" fill-opacity="0.08"/>
<rect x="370.231" width="100.247" height="1638" fill="#F5F5F5" fill-opacity="0.08"/>
<rect x="493.261" width="100.247" height="1638" fill="#F5F5F5" fill-opacity="0.08"/>
<rect x="616.292" width="100.247" height="1638" fill="#F5F5F5" fill-opacity="0.08"/>
<rect x="740.461" width="100.247" height="1638" fill="#F5F5F5" fill-opacity="0.08"/>
<rect x="863.492" width="100.247" height="1638" fill="#F5F5F5" fill-opacity="0.08"/>
<rect x="986.522" width="100.247" height="1638" fill="#F5F5F5" fill-opacity="0.08"/>
<rect x="1109.55" width="100.247" height="1638" fill="#F5F5F5" fill-opacity="0.08"/>
<rect x="1233.72" width="100.247" height="1638" fill="#F5F5F5" fill-opacity="0.08"/>
<rect x="1356.75" width="100.247" height="1638" fill="#F5F5F5" fill-opacity="0.08"/>
<path d="M126.946 156.389H133.101V188.106L129.739 184.651H149.054V190H126.946V156.389ZM154.685 156.389H177.313V161.738H160.839V170.496H176.745V175.798H160.839V184.651H177.692V190H154.685V156.389ZM192.615 173.147L181.443 156.389H188.591L196.402 168.46L204.071 156.389H211.22L200.047 173.052L211.362 190H204.213L196.308 177.739L188.496 190H181.348L192.615 173.147ZM216.495 156.389H222.649V190H216.495V156.389ZM229.116 156.389H236.311L250.797 181.668V156.389H256.951V190H249.566L235.27 165.431V190H229.116V156.389ZM277.7 190.757C274.544 190.757 271.798 190.016 269.463 188.532C267.159 187.049 265.391 184.998 264.16 182.378C262.93 179.727 262.314 176.682 262.314 173.242C262.314 169.865 262.945 166.851 264.208 164.2C265.47 161.517 267.269 159.418 269.605 157.904C271.972 156.389 274.765 155.631 277.984 155.631C282.087 155.631 285.306 156.657 287.641 158.708C290.008 160.76 291.555 163.584 292.28 167.182L285.89 167.514C285.511 165.431 284.674 163.821 283.381 162.685C282.118 161.549 280.335 160.981 278.031 160.981C274.97 160.981 272.65 162.133 271.072 164.436C269.494 166.709 268.705 169.644 268.705 173.242C268.705 175.64 269.037 177.755 269.699 179.585C270.362 181.416 271.403 182.852 272.824 183.893C274.244 184.903 276.011 185.408 278.126 185.408C279.735 185.408 281.14 185.061 282.339 184.367C283.57 183.672 284.532 182.725 285.227 181.526C285.921 180.327 286.316 178.97 286.41 177.455H278.078V172.674H292.375V190H288.399L288.02 182.615L288.777 183.088C288.462 184.572 287.767 185.897 286.694 187.065C285.653 188.233 284.343 189.148 282.765 189.811C281.187 190.442 279.499 190.757 277.7 190.757ZM305.668 161.738H295.49V156.389H322.048V161.738H311.822V190H305.668V161.738ZM340.45 190.757C337.136 190.757 334.28 190.063 331.881 188.674C329.483 187.254 327.637 185.234 326.343 182.615C325.049 179.964 324.402 176.839 324.402 173.242C324.402 169.644 325.049 166.519 326.343 163.868C327.637 161.217 329.483 159.182 331.881 157.761C334.28 156.341 337.136 155.631 340.45 155.631C343.764 155.631 346.62 156.341 349.018 157.761C351.449 159.182 353.295 161.217 354.557 163.868C355.851 166.519 356.498 169.644 356.498 173.242C356.498 176.839 355.851 179.964 354.557 182.615C353.295 185.234 351.449 187.254 349.018 188.674C346.62 190.063 343.764 190.757 340.45 190.757ZM340.45 185.408C342.47 185.408 344.206 184.935 345.657 183.988C347.109 183.009 348.214 181.605 348.971 179.775C349.729 177.944 350.107 175.766 350.107 173.242C350.107 170.685 349.729 168.492 348.971 166.661C348.214 164.831 347.109 163.427 345.657 162.448C344.206 161.47 342.47 160.981 340.45 160.981C338.43 160.981 336.694 161.47 335.243 162.448C333.822 163.427 332.718 164.831 331.929 166.661C331.171 168.492 330.793 170.685 330.793 173.242C330.793 175.766 331.171 177.944 331.929 179.775C332.718 181.605 333.822 183.009 335.243 183.988C336.694 184.935 338.43 185.408 340.45 185.408ZM361.288 156.389H368.484L382.97 181.668V156.389H389.124V190H381.739L367.443 165.431V190H361.288V156.389Z" fill="#F5F5F5"/>
<path d="M1334 575.294H1307.69V572.106L1330.96 572.106V558.986H1334V575.294ZM1334 553.441H1307.69V537.43H1310.72V550.254H1319.25V537.875H1322.29V550.254H1330.96V537.133H1334V553.441ZM1334 532.7L1320.77 525.436L1307.69 532.552V528.846L1318.32 523.398L1307.69 517.949V514.317L1320.81 521.433L1334 514.169V517.875L1323.21 523.472L1334 529.068V532.7ZM1334 509.365H1330.96V502.805H1310.72V509.365H1307.69V493.058H1310.72V499.618H1330.96V493.058H1334V509.365ZM1334 487.513H1307.69V483.065L1329.77 473.651H1307.69V470.464H1334V474.911L1311.91 484.325H1334V487.513ZM1334.59 456.839C1334.59 462.398 1329.92 466.475 1320.88 466.475C1312.39 466.475 1307.09 462.843 1307.09 456.691C1307.09 451.873 1310.58 448.611 1315.54 447.462L1315.77 450.798C1312.5 451.65 1310.21 453.577 1310.21 456.691C1310.21 460.805 1314.06 463.14 1320.88 463.14C1327.66 463.14 1331.48 460.731 1331.48 456.543C1331.48 452.91 1328.14 450.464 1323.77 450.316V456.617H1320.73V447.351H1334V450.316L1330.63 450.39C1333.04 451.65 1334.59 453.652 1334.59 456.839ZM1334 436.135H1310.72V444.178H1307.69V424.905H1310.72V432.948H1334V436.135ZM1334.59 412.318C1334.59 418.545 1329.66 422.029 1320.88 422.029C1312.02 422.029 1307.09 418.545 1307.09 412.318C1307.09 406.092 1312.02 402.608 1320.88 402.608C1329.66 402.608 1334.59 406.092 1334.59 412.318ZM1331.48 412.318C1331.48 408.241 1327.77 405.944 1320.88 405.944C1313.99 405.944 1310.21 408.241 1310.21 412.318C1310.21 416.395 1313.99 418.693 1320.88 418.693C1327.77 418.693 1331.48 416.395 1331.48 412.318ZM1334 398.62H1307.69V394.172L1329.77 384.758H1307.69V381.571H1334V386.018L1311.91 395.432H1334V398.62ZM1334 369.466H1310.72V377.508H1307.69V358.236H1310.72V366.278H1334V369.466ZM1334 354.247H1307.69V351.06H1319.25V340.237H1307.69V337.05H1334V340.237H1322.29V351.06H1334V354.247ZM1334 331.209H1307.69V315.197H1310.72V328.021H1319.25V315.642H1322.29V328.021H1330.96V314.901H1334V331.209ZM1331.03 302.611L1311.95 306.91H1334V310.097H1307.69V305.279L1325.99 301.202L1307.69 297.125V292.307H1334V295.494H1311.95L1331.03 299.794V302.611ZM1334 286.762H1307.69V270.751H1310.72V283.575H1319.25V271.196H1322.29V283.575H1330.96V270.454H1334V286.762ZM1334.59 256.348C1334.59 261.907 1330.92 265.799 1325.59 266.244L1325.36 262.908C1329.29 262.389 1331.48 259.98 1331.48 256.274C1331.48 252.605 1330.03 250.603 1327.48 250.603C1324.96 250.603 1323.59 251.863 1321.84 257.979C1320.29 263.464 1318.51 265.614 1314.58 265.614C1310.17 265.614 1307.09 262.278 1307.09 256.867C1307.09 251.456 1310.65 248.342 1315.47 247.749L1315.69 251.085C1312.5 251.53 1310.21 253.383 1310.21 256.941C1310.21 260.202 1311.91 262.278 1314.43 262.278C1316.91 262.278 1317.77 260.944 1319.17 255.977C1320.99 249.565 1323.18 247.268 1327.55 247.268C1331.7 247.268 1334.59 250.974 1334.59 256.348ZM1334 236.756H1329.55V232.309H1334V236.756ZM1334.59 212.235C1334.59 218.536 1329.29 222.02 1320.88 222.02C1312.39 222.02 1307.09 218.536 1307.09 212.235C1307.09 207.602 1310.28 204.155 1315.73 203.043L1315.95 206.453C1312.17 207.306 1310.21 209.492 1310.21 212.235C1310.21 216.423 1314.06 218.684 1320.88 218.684C1327.66 218.684 1331.48 216.423 1331.48 212.235C1331.48 209.196 1329.33 206.935 1325.14 206.194L1325.33 202.821C1331.11 203.785 1334.59 207.269 1334.59 212.235ZM1334.59 190.086C1334.59 196.312 1329.66 199.796 1320.88 199.796C1312.02 199.796 1307.09 196.312 1307.09 190.086C1307.09 183.859 1312.02 180.375 1320.88 180.375C1329.66 180.375 1334.59 183.859 1334.59 190.086ZM1331.48 190.086C1331.48 186.009 1327.77 183.711 1320.88 183.711C1313.99 183.711 1310.21 186.009 1310.21 190.086C1310.21 194.163 1313.99 196.461 1320.88 196.461C1327.77 196.461 1331.48 194.163 1331.48 190.086ZM1331.03 169.271L1311.95 173.57H1334V176.758H1307.69V171.94L1325.99 167.863L1307.69 163.786V158.968H1334V162.155H1311.95L1331.03 166.454V169.271Z" fill="#F5F5F5"/>
<path d="M128.105 1346.47H145.651C149.139 1346.47 152.138 1347.05 154.648 1348.2C157.2 1349.34 159.157 1351 160.518 1353.17C161.879 1355.34 162.56 1357.92 162.56 1360.89C162.56 1363.91 161.879 1366.53 160.518 1368.74C159.157 1370.91 157.2 1372.57 154.648 1373.72C152.138 1374.87 149.139 1375.44 145.651 1375.44H136.399V1391.78H128.105V1346.47ZM145.268 1368.23C148.076 1368.23 150.224 1367.61 151.713 1366.38C153.244 1365.15 154.01 1363.32 154.01 1360.89C154.01 1358.55 153.244 1356.77 151.713 1355.53C150.224 1354.3 148.076 1353.68 145.268 1353.68H136.399V1368.23H145.268ZM169.402 1357.7H177.059L177.378 1367.15L176.676 1367.02C177.186 1363.79 178.143 1361.43 179.547 1359.94C180.951 1358.45 182.907 1357.7 185.417 1357.7H188.544V1364.72H185.353C183.567 1364.72 182.099 1364.98 180.951 1365.49C179.845 1366 178.994 1366.81 178.398 1367.91C177.846 1369.02 177.569 1370.42 177.569 1372.12V1391.78H169.402V1357.7ZM208.321 1392.54C204.96 1392.54 202.025 1391.82 199.515 1390.37C197.006 1388.88 195.049 1386.8 193.645 1384.12C192.284 1381.44 191.603 1378.31 191.603 1374.74C191.603 1371.21 192.284 1368.1 193.645 1365.42C195.049 1362.7 196.984 1360.62 199.452 1359.17C201.961 1357.68 204.854 1356.94 208.129 1356.94C211.362 1356.94 214.191 1357.66 216.616 1359.11C219.083 1360.55 220.976 1362.66 222.294 1365.42C223.656 1368.19 224.336 1371.44 224.336 1375.19V1377.04H200.09C200.217 1379.97 201.004 1382.2 202.451 1383.74C203.939 1385.27 205.917 1386.03 208.385 1386.03C210.214 1386.03 211.724 1385.63 212.915 1384.82C214.106 1384.01 214.957 1382.84 215.467 1381.31L223.826 1381.82C222.932 1385.14 221.103 1387.76 218.338 1389.67C215.573 1391.58 212.234 1392.54 208.321 1392.54ZM215.85 1371.55C215.68 1368.87 214.914 1366.85 213.553 1365.49C212.192 1364.08 210.384 1363.38 208.129 1363.38C205.917 1363.38 204.088 1364.08 202.642 1365.49C201.238 1366.89 200.387 1368.91 200.09 1371.55H215.85ZM230.903 1357.7H238.304L238.56 1366.06L237.794 1365.68C238.177 1363.89 238.836 1362.34 239.772 1361.02C240.75 1359.7 241.92 1358.7 243.281 1358.02C244.685 1357.3 246.216 1356.94 247.875 1356.94C250.725 1356.94 253.044 1357.75 254.83 1359.36C256.659 1360.98 257.808 1363.23 258.276 1366.13H257.191C257.744 1363.19 258.914 1360.94 260.7 1359.36C262.487 1357.75 264.763 1356.94 267.528 1356.94C269.867 1356.94 271.888 1357.45 273.589 1358.47C275.291 1359.45 276.588 1360.91 277.482 1362.87C278.417 1364.79 278.885 1367.13 278.885 1369.89V1391.78H270.718V1372C270.718 1369.19 270.229 1367.08 269.25 1365.68C268.315 1364.28 266.868 1363.57 264.912 1363.57C263.593 1363.57 262.466 1363.91 261.53 1364.59C260.594 1365.27 259.871 1366.27 259.36 1367.59C258.893 1368.87 258.659 1370.42 258.659 1372.25V1391.78H251.066V1372.25C251.066 1369.36 250.619 1367.19 249.726 1365.74C248.832 1364.3 247.386 1363.57 245.387 1363.57C244.068 1363.57 242.941 1363.91 242.005 1364.59C241.069 1365.27 240.346 1366.27 239.836 1367.59C239.325 1368.91 239.07 1370.46 239.07 1372.25V1391.78H230.903V1357.7ZM287.855 1357.7H296.022V1391.78H287.855V1357.7ZM287.727 1345.9H296.214V1353.17H287.727V1345.9ZM315.099 1392.54C311.611 1392.54 308.867 1391.41 306.868 1389.16C304.869 1386.86 303.869 1383.69 303.869 1379.65V1357.7H312.036V1377.61C312.036 1380.46 312.504 1382.57 313.44 1383.93C314.418 1385.25 315.886 1385.91 317.843 1385.91C320.055 1385.91 321.756 1385.18 322.947 1383.74C324.181 1382.25 324.798 1380.1 324.798 1377.29V1357.7H332.965V1391.78H325.499L325.308 1382.4L326.329 1382.72C325.818 1385.95 324.606 1388.39 322.692 1390.05C320.778 1391.71 318.247 1392.54 315.099 1392.54ZM341.941 1357.7H349.343L349.598 1366.06L348.832 1365.68C349.215 1363.89 349.874 1362.34 350.81 1361.02C351.789 1359.7 352.958 1358.7 354.319 1358.02C355.723 1357.3 357.255 1356.94 358.914 1356.94C361.764 1356.94 364.082 1357.75 365.868 1359.36C367.698 1360.98 368.846 1363.23 369.314 1366.13H368.229C368.782 1363.19 369.952 1360.94 371.739 1359.36C373.525 1357.75 375.801 1356.94 378.566 1356.94C380.906 1356.94 382.926 1357.45 384.628 1358.47C386.329 1359.45 387.626 1360.91 388.52 1362.87C389.456 1364.79 389.924 1367.13 389.924 1369.89V1391.78H381.756V1372C381.756 1369.19 381.267 1367.08 380.289 1365.68C379.353 1364.28 377.907 1363.57 375.95 1363.57C374.631 1363.57 373.504 1363.91 372.568 1364.59C371.632 1365.27 370.909 1366.27 370.399 1367.59C369.931 1368.87 369.697 1370.42 369.697 1372.25V1391.78H362.104V1372.25C362.104 1369.36 361.657 1367.19 360.764 1365.74C359.871 1364.3 358.424 1363.57 356.425 1363.57C355.106 1363.57 353.979 1363.91 353.043 1364.59C352.108 1365.27 351.384 1366.27 350.874 1367.59C350.363 1368.91 350.108 1370.46 350.108 1372.25V1391.78H341.941V1357.7ZM413.973 1357.7H421.374L421.629 1366.06L420.864 1365.68C421.247 1363.89 421.906 1362.34 422.842 1361.02C423.82 1359.7 424.99 1358.7 426.351 1358.02C427.755 1357.3 429.286 1356.94 430.945 1356.94C433.795 1356.94 436.113 1357.75 437.9 1359.36C439.729 1360.98 440.878 1363.23 441.346 1366.13H440.261C440.814 1363.19 441.984 1360.94 443.77 1359.36C445.557 1357.75 447.833 1356.94 450.598 1356.94C452.937 1356.94 454.958 1357.45 456.659 1358.47C458.361 1359.45 459.658 1360.91 460.551 1362.87C461.487 1364.79 461.955 1367.13 461.955 1369.89V1391.78H453.788V1372C453.788 1369.19 453.299 1367.08 452.32 1365.68C451.384 1364.28 449.938 1363.57 447.981 1363.57C446.663 1363.57 445.536 1363.91 444.6 1364.59C443.664 1365.27 442.941 1366.27 442.43 1367.59C441.962 1368.87 441.728 1370.42 441.728 1372.25V1391.78H434.135V1372.25C434.135 1369.36 433.689 1367.19 432.796 1365.74C431.902 1364.3 430.456 1363.57 428.457 1363.57C427.138 1363.57 426.011 1363.91 425.075 1364.59C424.139 1365.27 423.416 1366.27 422.905 1367.59C422.395 1368.91 422.14 1370.46 422.14 1372.25V1391.78H413.973V1357.7ZM481.345 1392.54C477.857 1392.54 475.113 1391.41 473.114 1389.16C471.114 1386.86 470.115 1383.69 470.115 1379.65V1357.7H478.282V1377.61C478.282 1380.46 478.75 1382.57 479.686 1383.93C480.664 1385.25 482.132 1385.91 484.088 1385.91C486.3 1385.91 488.002 1385.18 489.193 1383.74C490.427 1382.25 491.043 1380.1 491.043 1377.29V1357.7H499.211V1391.78H491.745L491.554 1382.4L492.575 1382.72C492.064 1385.95 490.852 1388.39 488.938 1390.05C487.024 1391.71 484.493 1392.54 481.345 1392.54ZM516.418 1391.78C513.823 1391.78 511.803 1391.14 510.356 1389.86C508.91 1388.54 508.187 1386.5 508.187 1383.74L508.251 1346.47H516.418V1382.91C516.418 1383.76 516.631 1384.4 517.056 1384.82C517.481 1385.25 518.119 1385.46 518.97 1385.46H521.459V1391.78H516.418ZM539.039 1391.78C535.636 1391.78 533.127 1390.99 531.51 1389.42C529.936 1387.84 529.149 1385.37 529.149 1382.01V1349.73H537.317V1381.25C537.317 1382.78 537.636 1383.86 538.274 1384.5C538.954 1385.14 540.039 1385.46 541.528 1385.46H546.313V1391.78H539.039ZM523.79 1357.7H546.313V1364.02H523.79V1357.7ZM552.802 1357.7H560.969V1391.78H552.802V1357.7ZM552.674 1345.9H561.16V1353.17H552.674V1345.9ZM569.127 1357.7H576.975L577.167 1364.98L576.337 1364.59C577.145 1362.13 578.528 1360.23 580.485 1358.92C582.441 1357.6 584.717 1356.94 587.312 1356.94C590.417 1356.94 593.055 1357.72 595.224 1359.3C597.436 1360.83 599.074 1362.96 600.137 1365.68C601.243 1368.36 601.796 1371.38 601.796 1374.74C601.796 1378.1 601.243 1381.14 600.137 1383.86C599.074 1386.54 597.436 1388.67 595.224 1390.24C593.055 1391.78 590.396 1392.54 587.248 1392.54C585.547 1392.54 583.951 1392.24 582.463 1391.65C581.016 1391.05 579.761 1390.2 578.698 1389.1C577.677 1387.95 576.954 1386.65 576.529 1385.2L577.294 1384.57V1401.35H569.127V1357.7ZM585.334 1385.91C587.801 1385.91 589.737 1384.93 591.14 1382.97C592.587 1380.97 593.31 1378.23 593.31 1374.74C593.31 1371.25 592.587 1368.53 591.14 1366.57C589.737 1364.57 587.801 1363.57 585.334 1363.57C583.675 1363.57 582.229 1364 580.995 1364.85C579.804 1365.7 578.889 1366.96 578.251 1368.61C577.613 1370.27 577.294 1372.31 577.294 1374.74C577.294 1377.16 577.613 1379.23 578.251 1380.93C578.889 1382.59 579.804 1383.84 580.995 1384.69C582.186 1385.5 583.632 1385.91 585.334 1385.91ZM618.65 1392.54C615.034 1392.54 612.142 1391.73 609.972 1390.12C607.845 1388.46 606.782 1386.16 606.782 1383.23C606.782 1380.33 607.675 1378.06 609.462 1376.4C611.291 1374.74 614.098 1373.53 617.884 1372.76L629.178 1370.53C629.178 1368.1 628.625 1366.3 627.519 1365.1C626.413 1363.87 624.797 1363.25 622.67 1363.25C620.713 1363.25 619.16 1363.7 618.012 1364.59C616.863 1365.49 616.098 1366.81 615.715 1368.55L607.356 1368.17C607.994 1364.55 609.632 1361.79 612.269 1359.87C614.949 1357.92 618.416 1356.94 622.67 1356.94C627.476 1356.94 631.113 1358.15 633.581 1360.57C636.09 1363 637.345 1366.51 637.345 1371.1V1383.48C637.345 1384.37 637.494 1384.99 637.792 1385.33C638.132 1385.67 638.621 1385.84 639.259 1385.84H640.344V1391.78C640.046 1391.86 639.621 1391.92 639.068 1391.97C638.515 1392.01 637.962 1392.03 637.409 1392.03C635.069 1392.03 633.262 1391.46 631.985 1390.31C630.752 1389.16 630.135 1387.18 630.135 1384.37L630.837 1384.88C630.326 1387.14 628.944 1388.99 626.689 1390.44C624.478 1391.84 621.798 1392.54 618.65 1392.54ZM620.309 1386.61C622.138 1386.61 623.712 1386.25 625.031 1385.52C626.349 1384.8 627.37 1383.8 628.093 1382.52C628.816 1381.21 629.178 1379.7 629.178 1377.99V1376.08L620.373 1377.87C618.586 1378.21 617.289 1378.76 616.48 1379.53C615.672 1380.29 615.268 1381.27 615.268 1382.46C615.268 1383.78 615.694 1384.8 616.544 1385.52C617.438 1386.25 618.692 1386.61 620.309 1386.61ZM660.944 1402.11C658.051 1402.11 655.52 1401.71 653.351 1400.9C651.224 1400.09 649.501 1398.96 648.182 1397.52C646.864 1396.07 645.949 1394.37 645.439 1392.41L653.861 1391.84C654.287 1393.24 655.031 1394.26 656.094 1394.9C657.2 1395.58 658.817 1395.92 660.944 1395.92C663.538 1395.92 665.495 1395.35 666.814 1394.2C668.133 1393.05 668.792 1391.31 668.792 1388.97V1384.63C667.984 1386.33 666.686 1387.67 664.9 1388.65C663.113 1389.63 661.114 1390.12 658.902 1390.12C656.094 1390.12 653.585 1389.44 651.373 1388.08C649.203 1386.67 647.502 1384.74 646.268 1382.27C645.035 1379.76 644.418 1376.87 644.418 1373.59C644.418 1370.36 645.035 1367.49 646.268 1364.98C647.502 1362.42 649.203 1360.45 651.373 1359.04C653.542 1357.64 656.009 1356.94 658.774 1356.94C661.199 1356.94 663.304 1357.49 665.091 1358.6C666.878 1359.66 668.196 1361.13 669.047 1363V1357.7H677.023V1388.78C677.023 1393.07 675.577 1396.37 672.684 1398.67C669.791 1400.96 665.878 1402.11 660.944 1402.11ZM660.816 1383.74C662.432 1383.74 663.836 1383.33 665.027 1382.52C666.261 1381.67 667.197 1380.48 667.835 1378.95C668.515 1377.42 668.856 1375.61 668.856 1373.53C668.898 1371.44 668.579 1369.64 667.899 1368.1C667.26 1366.57 666.325 1365.4 665.091 1364.59C663.9 1363.74 662.475 1363.32 660.816 1363.32C658.349 1363.32 656.413 1364.23 655.01 1366.06C653.606 1367.89 652.904 1370.38 652.904 1373.53C652.904 1376.63 653.606 1379.12 655.01 1380.99C656.456 1382.82 658.391 1383.74 660.816 1383.74ZM700.079 1392.54C696.719 1392.54 693.784 1391.82 691.274 1390.37C688.764 1388.88 686.808 1386.8 685.404 1384.12C684.043 1381.44 683.362 1378.31 683.362 1374.74C683.362 1371.21 684.043 1368.1 685.404 1365.42C686.808 1362.7 688.743 1360.62 691.21 1359.17C693.72 1357.68 696.613 1356.94 699.888 1356.94C703.121 1356.94 705.95 1357.66 708.374 1359.11C710.841 1360.55 712.734 1362.66 714.053 1365.42C715.414 1368.19 716.095 1371.44 716.095 1375.19V1377.04H691.848C691.976 1379.97 692.763 1382.2 694.209 1383.74C695.698 1385.27 697.676 1386.03 700.143 1386.03C701.972 1386.03 703.482 1385.63 704.674 1384.82C705.865 1384.01 706.715 1382.84 707.226 1381.31L715.584 1381.82C714.691 1385.14 712.862 1387.76 710.097 1389.67C707.332 1391.58 703.993 1392.54 700.079 1392.54ZM707.609 1371.55C707.438 1368.87 706.673 1366.85 705.312 1365.49C703.95 1364.08 702.143 1363.38 699.888 1363.38C697.676 1363.38 695.847 1364.08 694.401 1365.49C692.997 1366.89 692.146 1368.91 691.848 1371.55H707.609ZM751.894 1391.78C748.491 1391.78 745.981 1390.99 744.365 1389.42C742.791 1387.84 742.004 1385.37 742.004 1382.01V1349.73H750.171V1381.25C750.171 1382.78 750.49 1383.86 751.128 1384.5C751.809 1385.14 752.893 1385.46 754.382 1385.46H759.168V1391.78H751.894ZM736.644 1357.7H759.168V1364.02H736.644V1357.7ZM765.656 1346.47H773.823V1365.49H772.802C773.313 1362.64 774.525 1360.51 776.439 1359.11C778.354 1357.66 780.714 1356.94 783.522 1356.94C787.223 1356.94 790.073 1358.13 792.072 1360.51C794.071 1362.85 795.071 1365.98 795.071 1369.89V1391.78H786.904V1371.87C786.904 1369.1 786.414 1367.04 785.436 1365.68C784.5 1364.28 783.054 1363.57 781.097 1363.57C778.8 1363.57 777.014 1364.32 775.738 1365.81C774.461 1367.25 773.823 1369.34 773.823 1372.06V1391.78H765.656V1346.47ZM818.034 1392.54C814.674 1392.54 811.739 1391.82 809.229 1390.37C806.719 1388.88 804.762 1386.8 803.359 1384.12C801.998 1381.44 801.317 1378.31 801.317 1374.74C801.317 1371.21 801.998 1368.1 803.359 1365.42C804.762 1362.7 806.698 1360.62 809.165 1359.17C811.675 1357.68 814.567 1356.94 817.843 1356.94C821.076 1356.94 823.904 1357.66 826.329 1359.11C828.796 1360.55 830.689 1362.66 832.008 1365.42C833.369 1368.19 834.05 1371.44 834.05 1375.19V1377.04H809.803C809.931 1379.97 810.718 1382.2 812.164 1383.74C813.653 1385.27 815.631 1386.03 818.098 1386.03C819.927 1386.03 821.437 1385.63 822.628 1384.82C823.819 1384.01 824.67 1382.84 825.181 1381.31L833.539 1381.82C832.646 1385.14 830.817 1387.76 828.052 1389.67C825.287 1391.58 821.948 1392.54 818.034 1392.54ZM825.563 1371.55C825.393 1368.87 824.628 1366.85 823.266 1365.49C821.905 1364.08 820.097 1363.38 817.843 1363.38C815.631 1363.38 813.802 1364.08 812.355 1365.49C810.952 1366.89 810.101 1368.91 809.803 1371.55H825.563ZM840.616 1357.7H848.018L848.273 1366.06L847.507 1365.68C847.89 1363.89 848.55 1362.34 849.485 1361.02C850.464 1359.7 851.633 1358.7 852.995 1358.02C854.398 1357.3 855.93 1356.94 857.589 1356.94C860.439 1356.94 862.757 1357.75 864.544 1359.36C866.373 1360.98 867.521 1363.23 867.989 1366.13H866.905C867.458 1363.19 868.627 1360.94 870.414 1359.36C872.2 1357.75 874.476 1356.94 877.241 1356.94C879.581 1356.94 881.601 1357.45 883.303 1358.47C885.004 1359.45 886.302 1360.91 887.195 1362.87C888.131 1364.79 888.599 1367.13 888.599 1369.89V1391.78H880.431V1372C880.431 1369.19 879.942 1367.08 878.964 1365.68C878.028 1364.28 876.582 1363.57 874.625 1363.57C873.306 1363.57 872.179 1363.91 871.243 1364.59C870.308 1365.27 869.584 1366.27 869.074 1367.59C868.606 1368.87 868.372 1370.42 868.372 1372.25V1391.78H860.779V1372.25C860.779 1369.36 860.332 1367.19 859.439 1365.74C858.546 1364.3 857.1 1363.57 855.1 1363.57C853.782 1363.57 852.654 1363.91 851.719 1364.59C850.783 1365.27 850.06 1366.27 849.549 1367.59C849.039 1368.91 848.783 1370.46 848.783 1372.25V1391.78H840.616V1357.7ZM911.625 1392.54C908.265 1392.54 905.33 1391.82 902.82 1390.37C900.31 1388.88 898.354 1386.8 896.95 1384.12C895.589 1381.44 894.908 1378.31 894.908 1374.74C894.908 1371.21 895.589 1368.1 896.95 1365.42C898.354 1362.7 900.289 1360.62 902.756 1359.17C905.266 1357.68 908.159 1356.94 911.434 1356.94C914.667 1356.94 917.496 1357.66 919.92 1359.11C922.387 1360.55 924.28 1362.66 925.599 1365.42C926.96 1368.19 927.641 1371.44 927.641 1375.19V1377.04H903.394C903.522 1379.97 904.309 1382.2 905.755 1383.74C907.244 1385.27 909.222 1386.03 911.689 1386.03C913.518 1386.03 915.028 1385.63 916.219 1384.82C917.411 1384.01 918.261 1382.84 918.772 1381.31L927.13 1381.82C926.237 1385.14 924.408 1387.76 921.643 1389.67C918.878 1391.58 915.539 1392.54 911.625 1392.54ZM919.155 1371.55C918.984 1368.87 918.219 1366.85 916.858 1365.49C915.496 1364.08 913.689 1363.38 911.434 1363.38C909.222 1363.38 907.393 1364.08 905.947 1365.49C904.543 1366.89 903.692 1368.91 903.394 1371.55H919.155ZM948.307 1392.54C945.032 1392.54 942.224 1392.07 939.885 1391.14C937.588 1390.16 935.801 1388.8 934.525 1387.05C933.291 1385.31 932.59 1383.31 932.419 1381.06L940.778 1380.67C941.076 1382.5 941.82 1383.91 943.011 1384.88C944.245 1385.82 946.01 1386.29 948.307 1386.29C950.264 1386.29 951.774 1385.99 952.837 1385.4C953.901 1384.76 954.433 1383.78 954.433 1382.46C954.433 1381.69 954.241 1381.06 953.858 1380.55C953.475 1380.04 952.752 1379.59 951.689 1379.21C950.625 1378.82 949.052 1378.44 946.967 1378.06C943.479 1377.46 940.735 1376.74 938.736 1375.89C936.779 1374.99 935.376 1373.91 934.525 1372.63C933.674 1371.32 933.249 1369.66 933.249 1367.66C933.249 1364.42 934.482 1361.83 936.95 1359.87C939.459 1357.92 943.032 1356.94 947.669 1356.94C952.093 1356.94 955.539 1358 958.006 1360.13C960.515 1362.21 962.026 1364.98 962.536 1368.42L954.241 1368.81C953.943 1367.02 953.22 1365.64 952.072 1364.66C950.923 1363.68 949.434 1363.19 947.605 1363.19C945.691 1363.19 944.224 1363.57 943.203 1364.34C942.224 1365.1 941.735 1366.13 941.735 1367.4C941.735 1368.3 941.948 1369.04 942.373 1369.64C942.841 1370.23 943.564 1370.72 944.543 1371.1C945.521 1371.44 946.903 1371.76 948.69 1372.06C952.263 1372.61 955.071 1373.34 957.112 1374.23C959.197 1375.08 960.686 1376.16 961.579 1377.48C962.472 1378.76 962.919 1380.38 962.919 1382.33C962.919 1385.57 961.579 1388.08 958.899 1389.86C956.262 1391.65 952.731 1392.54 948.307 1392.54ZM995.071 1392.54C991.455 1392.54 988.563 1391.73 986.393 1390.12C984.266 1388.46 983.203 1386.16 983.203 1383.23C983.203 1380.33 984.096 1378.06 985.883 1376.4C987.712 1374.74 990.519 1373.53 994.305 1372.76L1005.6 1370.53C1005.6 1368.1 1005.05 1366.3 1003.94 1365.1C1002.83 1363.87 1001.22 1363.25 999.091 1363.25C997.134 1363.25 995.581 1363.7 994.433 1364.59C993.284 1365.49 992.519 1366.81 992.136 1368.55L983.777 1368.17C984.415 1364.55 986.053 1361.79 988.69 1359.87C991.37 1357.92 994.837 1356.94 999.091 1356.94C1003.9 1356.94 1007.53 1358.15 1010 1360.57C1012.51 1363 1013.77 1366.51 1013.77 1371.1V1383.48C1013.77 1384.37 1013.92 1384.99 1014.21 1385.33C1014.55 1385.67 1015.04 1385.84 1015.68 1385.84H1016.77V1391.78C1016.47 1391.86 1016.04 1391.92 1015.49 1391.97C1014.94 1392.01 1014.38 1392.03 1013.83 1392.03C1011.49 1392.03 1009.68 1391.46 1008.41 1390.31C1007.17 1389.16 1006.56 1387.18 1006.56 1384.37L1007.26 1384.88C1006.75 1387.14 1005.36 1388.99 1003.11 1390.44C1000.9 1391.84 998.219 1392.54 995.071 1392.54ZM996.73 1386.61C998.559 1386.61 1000.13 1386.25 1001.45 1385.52C1002.77 1384.8 1003.79 1383.8 1004.51 1382.52C1005.24 1381.21 1005.6 1379.7 1005.6 1377.99V1376.08L996.794 1377.87C995.007 1378.21 993.71 1378.76 992.901 1379.53C992.093 1380.29 991.689 1381.27 991.689 1382.46C991.689 1383.78 992.115 1384.8 992.965 1385.52C993.859 1386.25 995.113 1386.61 996.73 1386.61ZM1022.94 1357.7H1030.34L1030.66 1367.27L1029.7 1366.89C1030.21 1363.49 1031.45 1360.98 1033.4 1359.36C1035.36 1357.75 1037.81 1356.94 1040.74 1356.94C1044.4 1356.94 1047.25 1358.11 1049.29 1360.45C1051.33 1362.79 1052.35 1365.93 1052.35 1369.89V1391.78H1044.19V1372.51C1044.19 1369.49 1043.72 1367.25 1042.78 1365.81C1041.89 1364.32 1040.38 1363.57 1038.25 1363.57C1036.04 1363.57 1034.3 1364.36 1033.02 1365.93C1031.74 1367.47 1031.11 1369.66 1031.11 1372.51V1391.78H1022.94V1357.7ZM1072.76 1392.54C1069.87 1392.54 1067.36 1391.82 1065.24 1390.37C1063.11 1388.93 1061.47 1386.86 1060.32 1384.18C1059.17 1381.5 1058.6 1378.36 1058.6 1374.74C1058.6 1371.17 1059.17 1368.04 1060.32 1365.36C1061.47 1362.64 1063.11 1360.55 1065.24 1359.11C1067.4 1357.66 1069.91 1356.94 1072.76 1356.94C1075.15 1356.94 1077.23 1357.43 1079.02 1358.41C1080.8 1359.38 1082.17 1360.77 1083.1 1362.55V1346.47H1091.27V1391.78H1083.55L1083.36 1386.74C1082.38 1388.56 1080.95 1389.99 1079.08 1391.01C1077.21 1392.03 1075.1 1392.54 1072.76 1392.54ZM1075.19 1385.91C1076.85 1385.91 1078.27 1385.48 1079.46 1384.63C1080.65 1383.78 1081.55 1382.52 1082.14 1380.86C1082.78 1379.16 1083.1 1377.12 1083.1 1374.74C1083.1 1372.36 1082.78 1370.34 1082.14 1368.68C1081.55 1366.98 1080.65 1365.7 1079.46 1364.85C1078.32 1364 1076.89 1363.57 1075.19 1363.57C1072.72 1363.57 1070.74 1364.57 1069.25 1366.57C1067.81 1368.53 1067.09 1371.25 1067.09 1374.74C1067.09 1378.14 1067.81 1380.86 1069.25 1382.91C1070.74 1384.91 1072.72 1385.91 1075.19 1385.91ZM1133.09 1392.8C1129.43 1392.8 1126.22 1392.09 1123.45 1390.69C1120.73 1389.29 1118.62 1387.29 1117.13 1384.69C1115.69 1382.1 1114.96 1379.06 1114.96 1375.57V1346.41H1123.26V1375.57C1123.26 1378.8 1124.11 1381.29 1125.81 1383.03C1127.51 1384.74 1129.94 1385.59 1133.09 1385.59C1136.23 1385.59 1138.66 1384.74 1140.36 1383.03C1142.1 1381.29 1142.98 1378.8 1142.98 1375.57V1346.41H1151.27V1375.57C1151.27 1379.06 1150.53 1382.1 1149.04 1384.69C1147.55 1387.29 1145.44 1389.29 1142.72 1390.69C1140 1392.09 1136.79 1392.8 1133.09 1392.8ZM1160.47 1346.47H1168.77V1391.78H1160.47V1346.47ZM1194.06 1346.47H1202.35V1367.15L1220.09 1346.47H1229.92L1212.95 1366.38L1231 1391.78H1221.5L1207.46 1372.06L1202.35 1377.87V1391.78H1194.06V1346.47ZM1237.29 1357.7H1245.46V1391.78H1237.29V1357.7ZM1237.16 1345.9H1245.65V1353.17H1237.16V1345.9ZM1265.96 1391.78C1262.56 1391.78 1260.05 1390.99 1258.43 1389.42C1256.86 1387.84 1256.07 1385.37 1256.07 1382.01V1349.73H1264.24V1381.25C1264.24 1382.78 1264.56 1383.86 1265.19 1384.5C1265.87 1385.14 1266.96 1385.46 1268.45 1385.46H1273.23V1391.78H1265.96ZM1250.71 1357.7H1273.23V1364.02H1250.71V1357.7ZM1293.01 1392.54C1289.74 1392.54 1286.93 1392.07 1284.59 1391.14C1282.29 1390.16 1280.51 1388.8 1279.23 1387.05C1278 1385.31 1277.29 1383.31 1277.12 1381.06L1285.48 1380.67C1285.78 1382.5 1286.52 1383.91 1287.72 1384.88C1288.95 1385.82 1290.71 1386.29 1293.01 1386.29C1294.97 1386.29 1296.48 1385.99 1297.54 1385.4C1298.61 1384.76 1299.14 1383.78 1299.14 1382.46C1299.14 1381.69 1298.95 1381.06 1298.56 1380.55C1298.18 1380.04 1297.46 1379.59 1296.39 1379.21C1295.33 1378.82 1293.76 1378.44 1291.67 1378.06C1288.18 1377.46 1285.44 1376.74 1283.44 1375.89C1281.48 1374.99 1280.08 1373.91 1279.23 1372.63C1278.38 1371.32 1277.95 1369.66 1277.95 1367.66C1277.95 1364.42 1279.19 1361.83 1281.65 1359.87C1284.16 1357.92 1287.74 1356.94 1292.37 1356.94C1296.8 1356.94 1300.24 1358 1302.71 1360.13C1305.22 1362.21 1306.73 1364.98 1307.24 1368.42L1298.95 1368.81C1298.65 1367.02 1297.92 1365.64 1296.78 1364.66C1295.63 1363.68 1294.14 1363.19 1292.31 1363.19C1290.4 1363.19 1288.93 1363.57 1287.91 1364.34C1286.93 1365.1 1286.44 1366.13 1286.44 1367.4C1286.44 1368.3 1286.65 1369.04 1287.08 1369.64C1287.55 1370.23 1288.27 1370.72 1289.25 1371.1C1290.23 1371.44 1291.61 1371.76 1293.39 1372.06C1296.97 1372.61 1299.78 1373.34 1301.82 1374.23C1303.9 1375.08 1305.39 1376.16 1306.28 1377.48C1307.18 1378.76 1307.62 1380.38 1307.62 1382.33C1307.62 1385.57 1306.28 1388.08 1303.6 1389.86C1300.97 1391.65 1297.44 1392.54 1293.01 1392.54ZM142.397 1471.54C139.037 1471.54 136.102 1470.82 133.592 1469.37C131.082 1467.88 129.125 1465.8 127.722 1463.12C126.318 1460.4 125.616 1457.27 125.616 1453.74C125.616 1450.21 126.318 1447.1 127.722 1444.42C129.125 1441.7 131.082 1439.62 133.592 1438.17C136.102 1436.68 139.037 1435.94 142.397 1435.94C145.29 1435.94 147.863 1436.45 150.118 1437.47C152.415 1438.49 154.265 1439.98 155.669 1441.94C157.073 1443.85 157.945 1446.13 158.285 1448.76L149.863 1449.21C149.522 1447.08 148.693 1445.44 147.374 1444.3C146.055 1443.15 144.396 1442.57 142.397 1442.57C139.76 1442.57 137.718 1443.55 136.272 1445.51C134.825 1447.47 134.102 1450.21 134.102 1453.74C134.102 1457.27 134.825 1460.01 136.272 1461.97C137.718 1463.93 139.76 1464.91 142.397 1464.91C144.439 1464.91 146.119 1464.33 147.438 1463.18C148.757 1461.99 149.565 1460.21 149.863 1457.82L158.285 1458.21C157.987 1460.93 157.136 1463.29 155.733 1465.29C154.329 1467.29 152.479 1468.84 150.182 1469.95C147.885 1471.01 145.29 1471.54 142.397 1471.54ZM164.292 1436.7H171.949L172.268 1446.15L171.566 1446.02C172.077 1442.79 173.034 1440.43 174.438 1438.94C175.841 1437.45 177.798 1436.7 180.308 1436.7H183.434V1443.72H180.244C178.457 1443.72 176.99 1443.98 175.841 1444.49C174.735 1445 173.885 1445.81 173.289 1446.91C172.736 1448.02 172.46 1449.42 172.46 1451.12V1470.78H164.292V1436.7ZM199.047 1471.54C195.432 1471.54 192.539 1470.73 190.37 1469.12C188.243 1467.46 187.179 1465.16 187.179 1462.23C187.179 1459.33 188.073 1457.06 189.859 1455.4C191.688 1453.74 194.496 1452.53 198.282 1451.76L209.575 1449.53C209.575 1447.1 209.022 1445.3 207.916 1444.1C206.811 1442.87 205.194 1442.25 203.067 1442.25C201.11 1442.25 199.558 1442.7 198.409 1443.59C197.261 1444.49 196.495 1445.81 196.112 1447.55L187.754 1447.17C188.392 1443.55 190.029 1440.79 192.667 1438.87C195.347 1436.92 198.813 1435.94 203.067 1435.94C207.874 1435.94 211.511 1437.15 213.978 1439.57C216.488 1442 217.743 1445.51 217.743 1450.1V1462.48C217.743 1463.37 217.892 1463.99 218.189 1464.33C218.53 1464.67 219.019 1464.84 219.657 1464.84H220.742V1470.78C220.444 1470.86 220.018 1470.92 219.465 1470.97C218.912 1471.01 218.359 1471.03 217.806 1471.03C215.467 1471.03 213.659 1470.46 212.383 1469.31C211.149 1468.16 210.533 1466.18 210.533 1463.37L211.234 1463.88C210.724 1466.14 209.341 1467.99 207.087 1469.44C204.875 1470.84 202.195 1471.54 199.047 1471.54ZM200.706 1465.61C202.535 1465.61 204.109 1465.25 205.428 1464.52C206.747 1463.8 207.768 1462.8 208.491 1461.52C209.214 1460.21 209.575 1458.7 209.575 1456.99V1455.08L200.77 1456.87C198.984 1457.21 197.686 1457.76 196.878 1458.53C196.07 1459.29 195.666 1460.27 195.666 1461.46C195.666 1462.78 196.091 1463.8 196.942 1464.52C197.835 1465.25 199.09 1465.61 200.706 1465.61ZM230.737 1435.36C230.737 1432.22 231.609 1429.79 233.353 1428.09C235.097 1426.35 237.735 1425.47 241.265 1425.47H247.901V1431.79H242.797C241.478 1431.79 240.5 1432.13 239.862 1432.81C239.266 1433.49 238.968 1434.49 238.968 1435.81V1470.78H230.737V1435.36ZM225.888 1437.6H247.455V1443.91H225.888V1437.6ZM268.36 1470.78C264.957 1470.78 262.447 1469.99 260.831 1468.42C259.257 1466.84 258.47 1464.37 258.47 1461.01V1428.73H266.637V1460.25C266.637 1461.78 266.956 1462.86 267.595 1463.5C268.275 1464.14 269.36 1464.46 270.849 1464.46H275.634V1470.78H268.36ZM253.11 1436.7H275.634V1443.02H253.11V1436.7ZM296.242 1471.54C292.881 1471.54 289.946 1470.82 287.436 1469.37C284.927 1467.88 282.97 1465.8 281.566 1463.12C280.205 1460.44 279.524 1457.31 279.524 1453.74C279.524 1450.21 280.205 1447.1 281.566 1444.42C282.97 1441.7 284.905 1439.62 287.373 1438.17C289.882 1436.68 292.775 1435.94 296.05 1435.94C299.283 1435.94 302.112 1436.66 304.536 1438.11C307.004 1439.55 308.897 1441.66 310.215 1444.42C311.576 1447.19 312.257 1450.44 312.257 1454.19V1456.04H288.011C288.138 1458.97 288.925 1461.2 290.371 1462.74C291.86 1464.27 293.838 1465.03 296.305 1465.03C298.135 1465.03 299.645 1464.63 300.836 1463.82C302.027 1463.01 302.877 1461.84 303.388 1460.31L311.747 1460.82C310.853 1464.14 309.024 1466.76 306.259 1468.67C303.494 1470.58 300.155 1471.54 296.242 1471.54ZM303.771 1450.55C303.601 1447.87 302.835 1445.85 301.474 1444.49C300.113 1443.08 298.305 1442.38 296.05 1442.38C293.838 1442.38 292.009 1443.08 290.563 1444.49C289.159 1445.89 288.308 1447.91 288.011 1450.55H303.771ZM331.201 1471.54C328.308 1471.54 325.798 1470.82 323.671 1469.37C321.545 1467.93 319.907 1465.86 318.758 1463.18C317.61 1460.5 317.036 1457.36 317.036 1453.74C317.036 1450.17 317.61 1447.04 318.758 1444.36C319.907 1441.64 321.545 1439.55 323.671 1438.11C325.841 1436.66 328.351 1435.94 331.201 1435.94C333.583 1435.94 335.667 1436.43 337.454 1437.41C339.24 1438.38 340.601 1439.77 341.537 1441.55V1425.47H349.704V1470.78H341.984L341.792 1465.74C340.814 1467.56 339.389 1468.99 337.517 1470.01C335.646 1471.03 333.54 1471.54 331.201 1471.54ZM333.625 1464.91C335.284 1464.91 336.709 1464.48 337.9 1463.63C339.091 1462.78 339.985 1461.52 340.58 1459.86C341.218 1458.16 341.537 1456.12 341.537 1453.74C341.537 1451.36 341.218 1449.34 340.58 1447.68C339.985 1445.98 339.091 1444.7 337.9 1443.85C336.752 1443 335.327 1442.57 333.625 1442.57C331.158 1442.57 329.18 1443.57 327.691 1445.57C326.245 1447.53 325.522 1450.25 325.522 1453.74C325.522 1457.14 326.245 1459.86 327.691 1461.91C329.18 1463.91 331.158 1464.91 333.625 1464.91ZM370.657 1436.7H379.016L385.588 1461.52L392.479 1436.7H399.561L406.452 1461.52L413.088 1436.7H421.447L411.174 1470.78H402.752L395.988 1447.93L389.288 1470.78H380.866L370.657 1436.7ZM427.307 1436.7H435.474V1470.78H427.307V1436.7ZM427.18 1424.9H435.666V1432.17H427.18V1424.9ZM455.979 1470.78C452.576 1470.78 450.066 1469.99 448.45 1468.42C446.876 1466.84 446.089 1464.37 446.089 1461.01V1428.73H454.256V1460.25C454.256 1461.78 454.575 1462.86 455.213 1463.5C455.894 1464.14 456.978 1464.46 458.467 1464.46H463.253V1470.78H455.979ZM440.729 1436.7H463.253V1443.02H440.729V1436.7ZM469.741 1425.47H477.908V1444.49H476.887C477.398 1441.64 478.61 1439.51 480.524 1438.11C482.438 1436.66 484.799 1435.94 487.607 1435.94C491.308 1435.94 494.158 1437.13 496.157 1439.51C498.156 1441.85 499.156 1444.98 499.156 1448.89V1470.78H490.989V1450.87C490.989 1448.1 490.499 1446.04 489.521 1444.68C488.585 1443.28 487.139 1442.57 485.182 1442.57C482.885 1442.57 481.099 1443.32 479.822 1444.81C478.546 1446.25 477.908 1448.34 477.908 1451.06V1470.78H469.741V1425.47ZM536.477 1425.47H546.622L562.957 1470.78H554.279L550.515 1460.06H532.585L528.82 1470.78H520.143L536.477 1425.47ZM548.09 1452.97L541.582 1433.83L535.01 1452.97H548.09ZM582.043 1471.54C578.767 1471.54 575.96 1471.07 573.62 1470.14C571.323 1469.16 569.537 1467.8 568.261 1466.05C567.027 1464.31 566.325 1462.31 566.155 1460.06L574.514 1459.67C574.811 1461.5 575.556 1462.91 576.747 1463.88C577.981 1464.82 579.746 1465.29 582.043 1465.29C584 1465.29 585.51 1464.99 586.573 1464.4C587.637 1463.76 588.168 1462.78 588.168 1461.46C588.168 1460.69 587.977 1460.06 587.594 1459.55C587.211 1459.04 586.488 1458.59 585.425 1458.21C584.361 1457.82 582.787 1457.44 580.703 1457.06C577.215 1456.46 574.471 1455.74 572.472 1454.89C570.515 1453.99 569.111 1452.91 568.261 1451.63C567.41 1450.32 566.985 1448.66 566.985 1446.66C566.985 1443.42 568.218 1440.83 570.685 1438.87C573.195 1436.92 576.768 1435.94 581.405 1435.94C585.829 1435.94 589.274 1437 591.741 1439.13C594.251 1441.21 595.761 1443.98 596.272 1447.42L587.977 1447.81C587.679 1446.02 586.956 1444.64 585.807 1443.66C584.659 1442.68 583.17 1442.19 581.341 1442.19C579.427 1442.19 577.959 1442.57 576.938 1443.34C575.96 1444.1 575.471 1445.13 575.471 1446.4C575.471 1447.3 575.684 1448.04 576.109 1448.64C576.577 1449.23 577.3 1449.72 578.278 1450.1C579.257 1450.44 580.639 1450.76 582.426 1451.06C585.999 1451.61 588.806 1452.34 590.848 1453.23C592.933 1454.08 594.421 1455.16 595.315 1456.48C596.208 1457.76 596.655 1459.38 596.655 1461.33C596.655 1464.57 595.315 1467.08 592.635 1468.86C589.997 1470.65 586.467 1471.54 582.043 1471.54ZM615.62 1470.78C612.217 1470.78 609.707 1469.99 608.09 1468.42C606.517 1466.84 605.73 1464.37 605.73 1461.01V1428.73H613.897V1460.25C613.897 1461.78 614.216 1462.86 614.854 1463.5C615.535 1464.14 616.619 1464.46 618.108 1464.46H622.894V1470.78H615.62ZM600.37 1436.7H622.894V1443.02H600.37V1436.7ZM629.693 1436.7H637.35L637.669 1446.15L636.967 1446.02C637.478 1442.79 638.435 1440.43 639.839 1438.94C641.242 1437.45 643.199 1436.7 645.709 1436.7H648.835V1443.72H645.645C643.858 1443.72 642.391 1443.98 641.242 1444.49C640.136 1445 639.286 1445.81 638.69 1446.91C638.137 1448.02 637.861 1449.42 637.861 1451.12V1470.78H629.693V1436.7ZM668.676 1471.54C665.316 1471.54 662.381 1470.82 659.871 1469.37C657.361 1467.88 655.404 1465.8 654.001 1463.12C652.597 1460.44 651.895 1457.31 651.895 1453.74C651.895 1450.17 652.597 1447.04 654.001 1444.36C655.404 1441.68 657.361 1439.62 659.871 1438.17C662.381 1436.68 665.316 1435.94 668.676 1435.94C671.994 1435.94 674.908 1436.68 677.418 1438.17C679.97 1439.62 681.927 1441.68 683.288 1444.36C684.692 1447.04 685.393 1450.17 685.393 1453.74C685.393 1457.31 684.692 1460.44 683.288 1463.12C681.927 1465.8 679.97 1467.88 677.418 1469.37C674.908 1470.82 671.994 1471.54 668.676 1471.54ZM668.676 1464.91C671.314 1464.91 673.355 1463.93 674.802 1461.97C676.248 1460.01 676.971 1457.27 676.971 1453.74C676.971 1450.25 676.248 1447.53 674.802 1445.57C673.355 1443.57 671.314 1442.57 668.676 1442.57C666.039 1442.57 663.997 1443.55 662.551 1445.51C661.104 1447.47 660.381 1450.21 660.381 1453.74C660.381 1457.27 661.104 1460.01 662.551 1461.97C663.997 1463.93 666.039 1464.91 668.676 1464.91ZM717.6 1471.54C713.984 1471.54 711.092 1470.73 708.922 1469.12C706.795 1467.46 705.732 1465.16 705.732 1462.23C705.732 1459.33 706.625 1457.06 708.412 1455.4C710.241 1453.74 713.048 1452.53 716.834 1451.76L728.128 1449.53C728.128 1447.1 727.575 1445.3 726.469 1444.1C725.363 1442.87 723.746 1442.25 721.62 1442.25C719.663 1442.25 718.11 1442.7 716.962 1443.59C715.813 1444.49 715.048 1445.81 714.665 1447.55L706.306 1447.17C706.944 1443.55 708.582 1440.79 711.219 1438.87C713.899 1436.92 717.366 1435.94 721.62 1435.94C726.426 1435.94 730.063 1437.15 732.531 1439.57C735.04 1442 736.295 1445.51 736.295 1450.1V1462.48C736.295 1463.37 736.444 1463.99 736.742 1464.33C737.082 1464.67 737.571 1464.84 738.209 1464.84H739.294V1470.78C738.996 1470.86 738.571 1470.92 738.018 1470.97C737.465 1471.01 736.912 1471.03 736.359 1471.03C734.019 1471.03 732.211 1470.46 730.935 1469.31C729.702 1468.16 729.085 1466.18 729.085 1463.37L729.787 1463.88C729.276 1466.14 727.894 1467.99 725.639 1469.44C723.427 1470.84 720.748 1471.54 717.6 1471.54ZM719.259 1465.61C721.088 1465.61 722.662 1465.25 723.98 1464.52C725.299 1463.8 726.32 1462.8 727.043 1461.52C727.766 1460.21 728.128 1458.7 728.128 1456.99V1455.08L719.323 1456.87C717.536 1457.21 716.239 1457.76 715.43 1458.53C714.622 1459.29 714.218 1460.27 714.218 1461.46C714.218 1462.78 714.643 1463.8 715.494 1464.52C716.387 1465.25 717.642 1465.61 719.259 1465.61ZM745.467 1436.7H752.869L753.188 1446.27L752.231 1445.89C752.741 1442.49 753.975 1439.98 755.932 1438.36C757.888 1436.75 760.334 1435.94 763.269 1435.94C766.928 1435.94 769.778 1437.11 771.819 1439.45C773.861 1441.79 774.882 1444.93 774.882 1448.89V1470.78H766.715V1451.51C766.715 1448.49 766.247 1446.25 765.311 1444.81C764.418 1443.32 762.908 1442.57 760.781 1442.57C758.569 1442.57 756.825 1443.36 755.549 1444.93C754.273 1446.47 753.635 1448.66 753.635 1451.51V1470.78H745.467V1436.7ZM795.293 1471.54C792.401 1471.54 789.891 1470.82 787.764 1469.37C785.637 1467.93 783.999 1465.86 782.851 1463.18C781.702 1460.5 781.128 1457.36 781.128 1453.74C781.128 1450.17 781.702 1447.04 782.851 1444.36C783.999 1441.64 785.637 1439.55 787.764 1438.11C789.933 1436.66 792.443 1435.94 795.293 1435.94C797.675 1435.94 799.76 1436.43 801.546 1437.41C803.333 1438.38 804.694 1439.77 805.63 1441.55V1425.47H813.797V1470.78H806.076L805.885 1465.74C804.907 1467.56 803.482 1468.99 801.61 1470.01C799.738 1471.03 797.633 1471.54 795.293 1471.54ZM797.718 1464.91C799.377 1464.91 800.802 1464.48 801.993 1463.63C803.184 1462.78 804.077 1461.52 804.673 1459.86C805.311 1458.16 805.63 1456.12 805.63 1453.74C805.63 1451.36 805.311 1449.34 804.673 1447.68C804.077 1445.98 803.184 1444.7 801.993 1443.85C800.844 1443 799.419 1442.57 797.718 1442.57C795.251 1442.57 793.273 1443.57 791.784 1445.57C790.338 1447.53 789.614 1450.25 789.614 1453.74C789.614 1457.14 790.338 1459.86 791.784 1461.91C793.273 1463.91 795.251 1464.91 797.718 1464.91ZM848.787 1432.68H835.069V1425.47H870.864V1432.68H857.082V1470.78H848.787V1432.68ZM882.537 1471.54C878.921 1471.54 876.029 1470.73 873.859 1469.12C871.733 1467.46 870.669 1465.16 870.669 1462.23C870.669 1459.33 871.562 1457.06 873.349 1455.4C875.178 1453.74 877.986 1452.53 881.771 1451.76L893.065 1449.53C893.065 1447.1 892.512 1445.3 891.406 1444.1C890.3 1442.87 888.684 1442.25 886.557 1442.25C884.6 1442.25 883.048 1442.7 881.899 1443.59C880.751 1444.49 879.985 1445.81 879.602 1447.55L871.243 1447.17C871.881 1443.55 873.519 1440.79 876.156 1438.87C878.836 1436.92 882.303 1435.94 886.557 1435.94C891.364 1435.94 895.001 1437.15 897.468 1439.57C899.978 1442 901.232 1445.51 901.232 1450.1V1462.48C901.232 1463.37 901.381 1463.99 901.679 1464.33C902.019 1464.67 902.509 1464.84 903.147 1464.84H904.231V1470.78C903.934 1470.86 903.508 1470.92 902.955 1470.97C902.402 1471.01 901.849 1471.03 901.296 1471.03C898.957 1471.03 897.149 1470.46 895.873 1469.31C894.639 1468.16 894.022 1466.18 894.022 1463.37L894.724 1463.88C894.214 1466.14 892.831 1467.99 890.577 1469.44C888.365 1470.84 885.685 1471.54 882.537 1471.54ZM884.196 1465.61C886.025 1465.61 887.599 1465.25 888.918 1464.52C890.236 1463.8 891.257 1462.8 891.98 1461.52C892.704 1460.21 893.065 1458.7 893.065 1456.99V1455.08L884.26 1456.87C882.473 1457.21 881.176 1457.76 880.368 1458.53C879.559 1459.29 879.155 1460.27 879.155 1461.46C879.155 1462.78 879.581 1463.8 880.432 1464.52C881.325 1465.25 882.58 1465.61 884.196 1465.61ZM910.654 1436.7H918.821V1470.78H910.654V1436.7ZM910.526 1424.9H919.012V1432.17H910.526V1424.9ZM936.02 1470.78C933.426 1470.78 931.405 1470.14 929.959 1468.86C928.513 1467.54 927.789 1465.5 927.789 1462.74L927.853 1425.47H936.02V1461.91C936.02 1462.76 936.233 1463.4 936.658 1463.82C937.084 1464.25 937.722 1464.46 938.573 1464.46H941.061V1470.78H936.02ZM942.672 1436.7H951.031L957.603 1461.52L964.494 1436.7H971.577L978.468 1461.52L985.104 1436.7H993.462L983.189 1470.78H974.767L968.003 1447.93L961.304 1470.78H952.881L942.672 1436.7ZM999.322 1436.7H1007.49V1470.78H999.322V1436.7ZM999.195 1424.9H1007.68V1432.17H999.195V1424.9ZM1015.65 1436.7H1023.05L1023.37 1446.27L1022.41 1445.89C1022.92 1442.49 1024.16 1439.98 1026.11 1438.36C1028.07 1436.75 1030.51 1435.94 1033.45 1435.94C1037.11 1435.94 1039.96 1437.11 1042 1439.45C1044.04 1441.79 1045.06 1444.93 1045.06 1448.89V1470.78H1036.9V1451.51C1036.9 1448.49 1036.43 1446.25 1035.49 1444.81C1034.6 1443.32 1033.09 1442.57 1030.96 1442.57C1028.75 1442.57 1027.01 1443.36 1025.73 1444.93C1024.45 1446.47 1023.82 1448.66 1023.82 1451.51V1470.78H1015.65V1436.7ZM1065.47 1471.54C1062.58 1471.54 1060.07 1470.82 1057.94 1469.37C1055.82 1467.93 1054.18 1465.86 1053.03 1463.18C1051.88 1460.5 1051.31 1457.36 1051.31 1453.74C1051.31 1450.17 1051.88 1447.04 1053.03 1444.36C1054.18 1441.64 1055.82 1439.55 1057.94 1438.11C1060.11 1436.66 1062.62 1435.94 1065.47 1435.94C1067.86 1435.94 1069.94 1436.43 1071.73 1437.41C1073.51 1438.38 1074.87 1439.77 1075.81 1441.55V1425.47H1083.98V1470.78H1076.26L1076.07 1465.74C1075.09 1467.56 1073.66 1468.99 1071.79 1470.01C1069.92 1471.03 1067.81 1471.54 1065.47 1471.54ZM1067.9 1464.91C1069.56 1464.91 1070.98 1464.48 1072.17 1463.63C1073.36 1462.78 1074.26 1461.52 1074.85 1459.86C1075.49 1458.16 1075.81 1456.12 1075.81 1453.74C1075.81 1451.36 1075.49 1449.34 1074.85 1447.68C1074.26 1445.98 1073.36 1444.7 1072.17 1443.85C1071.03 1443 1069.6 1442.57 1067.9 1442.57C1065.43 1442.57 1063.45 1443.57 1061.96 1445.57C1060.52 1447.53 1059.8 1450.25 1059.8 1453.74C1059.8 1457.14 1060.52 1459.86 1061.96 1461.91C1063.45 1463.91 1065.43 1464.91 1067.9 1464.91ZM1127.26 1471.8C1123.14 1471.8 1119.5 1470.86 1116.35 1468.99C1113.2 1467.08 1110.74 1464.33 1108.95 1460.76C1107.16 1457.19 1106.27 1453 1106.27 1448.19C1106.27 1443.42 1107.14 1439.26 1108.89 1435.68C1110.63 1432.07 1113.08 1429.3 1116.22 1427.39C1119.41 1425.43 1123.14 1424.45 1127.39 1424.45C1133.01 1424.45 1137.43 1425.86 1140.66 1428.66C1143.94 1431.47 1146.06 1435.51 1147.04 1440.79L1138.36 1441.23C1137.81 1438.21 1136.6 1435.87 1134.73 1434.21C1132.9 1432.51 1130.45 1431.66 1127.39 1431.66C1124.84 1431.66 1122.6 1432.34 1120.69 1433.7C1118.82 1435.02 1117.37 1436.94 1116.35 1439.45C1115.37 1441.91 1114.88 1444.83 1114.88 1448.19C1114.88 1451.55 1115.39 1454.46 1116.42 1456.93C1117.44 1459.4 1118.88 1461.29 1120.75 1462.61C1122.63 1463.93 1124.82 1464.59 1127.33 1464.59C1130.6 1464.59 1133.18 1463.69 1135.05 1461.91C1136.92 1460.08 1138.11 1457.5 1138.62 1454.19L1147.3 1454.63C1146.4 1460.08 1144.23 1464.31 1140.79 1467.33C1137.39 1470.31 1132.88 1471.8 1127.26 1471.8ZM1172.03 1471.8C1168.29 1471.8 1165.05 1471.16 1162.33 1469.88C1159.61 1468.56 1157.46 1466.71 1155.89 1464.33C1154.31 1461.95 1153.4 1459.18 1153.14 1456.04L1161.57 1455.53C1161.86 1457.53 1162.44 1459.21 1163.29 1460.57C1164.14 1461.89 1165.29 1462.91 1166.73 1463.63C1168.22 1464.31 1170.03 1464.65 1172.16 1464.65C1174.84 1464.65 1176.9 1464.16 1178.35 1463.18C1179.84 1462.16 1180.58 1460.69 1180.58 1458.78C1180.58 1457.55 1180.28 1456.5 1179.69 1455.65C1179.09 1454.76 1178.01 1453.95 1176.43 1453.23C1174.86 1452.46 1172.56 1451.72 1169.54 1451C1165.67 1450.1 1162.63 1449.12 1160.42 1448.06C1158.2 1446.95 1156.59 1445.59 1155.57 1443.98C1154.59 1442.36 1154.1 1440.32 1154.1 1437.85C1154.1 1435.21 1154.74 1432.9 1156.01 1430.9C1157.33 1428.86 1159.23 1427.28 1161.69 1426.18C1164.16 1425.03 1167.07 1424.45 1170.43 1424.45C1173.92 1424.45 1176.94 1425.09 1179.5 1426.37C1182.05 1427.64 1184.05 1429.41 1185.49 1431.66C1186.94 1433.92 1187.83 1436.53 1188.17 1439.51L1179.81 1439.89C1179.64 1438.23 1179.15 1436.79 1178.35 1435.55C1177.54 1434.28 1176.45 1433.3 1175.09 1432.62C1173.77 1431.94 1172.18 1431.6 1170.31 1431.6C1167.92 1431.6 1166.03 1432.15 1164.63 1433.26C1163.22 1434.32 1162.52 1435.75 1162.52 1437.53C1162.52 1438.77 1162.82 1439.79 1163.42 1440.6C1164.01 1441.4 1165.01 1442.11 1166.41 1442.7C1167.86 1443.25 1169.97 1443.85 1172.73 1444.49C1176.73 1445.34 1179.92 1446.42 1182.3 1447.74C1184.68 1449.02 1186.39 1450.53 1187.41 1452.27C1188.47 1453.97 1189 1455.99 1189 1458.33C1189 1461.06 1188.3 1463.44 1186.9 1465.48C1185.49 1467.48 1183.49 1469.03 1180.9 1470.14C1178.35 1471.24 1175.39 1471.8 1172.03 1471.8ZM1214.65 1471.8C1210.91 1471.8 1207.67 1471.16 1204.95 1469.88C1202.23 1468.56 1200.08 1466.71 1198.51 1464.33C1196.93 1461.95 1196.02 1459.18 1195.76 1456.04L1204.19 1455.53C1204.48 1457.53 1205.06 1459.21 1205.91 1460.57C1206.76 1461.89 1207.91 1462.91 1209.35 1463.63C1210.84 1464.31 1212.65 1464.65 1214.78 1464.65C1217.46 1464.65 1219.52 1464.16 1220.97 1463.18C1222.46 1462.16 1223.2 1460.69 1223.2 1458.78C1223.2 1457.55 1222.9 1456.5 1222.31 1455.65C1221.71 1454.76 1220.63 1453.95 1219.05 1453.23C1217.48 1452.46 1215.18 1451.72 1212.16 1451C1208.29 1450.1 1205.25 1449.12 1203.04 1448.06C1200.83 1446.95 1199.21 1445.59 1198.19 1443.98C1197.21 1442.36 1196.72 1440.32 1196.72 1437.85C1196.72 1435.21 1197.36 1432.9 1198.63 1430.9C1199.95 1428.86 1201.85 1427.28 1204.31 1426.18C1206.78 1425.03 1209.69 1424.45 1213.06 1424.45C1216.54 1424.45 1219.56 1425.09 1222.12 1426.37C1224.67 1427.64 1226.67 1429.41 1228.11 1431.66C1229.56 1433.92 1230.45 1436.53 1230.79 1439.51L1222.43 1439.89C1222.26 1438.23 1221.78 1436.79 1220.97 1435.55C1220.16 1434.28 1219.07 1433.3 1217.71 1432.62C1216.39 1431.94 1214.8 1431.6 1212.93 1431.6C1210.55 1431.6 1208.65 1432.15 1207.25 1433.26C1205.85 1434.32 1205.14 1435.75 1205.14 1437.53C1205.14 1438.77 1205.44 1439.79 1206.04 1440.6C1206.63 1441.4 1207.63 1442.11 1209.04 1442.7C1210.48 1443.25 1212.59 1443.85 1215.35 1444.49C1219.35 1445.34 1222.54 1446.42 1224.92 1447.74C1227.31 1449.02 1229.01 1450.53 1230.03 1452.27C1231.09 1453.97 1231.62 1455.99 1231.62 1458.33C1231.62 1461.06 1230.92 1463.44 1229.52 1465.48C1228.11 1467.48 1226.11 1469.03 1223.52 1470.14C1220.97 1471.24 1218.01 1471.8 1214.65 1471.8Z" fill="#F5F5F5"/>
<g clip-path="url(#clip1_2209_39)">
<path fill-rule="evenodd" clip-rule="evenodd" d="M391.588 973.759L455.971 1038.38L361.367 1132.64L452.403 1206.87V1303.15H361.186V1132.82L192.972 1300.42L128.588 1235.81L300.039 1064.98H128.073V973.759H391.588Z" fill="#F5F5F5"/>
</g>
</g>
<defs>
<clipPath id="clip0_2209_39">
<rect width="1457.07" height="1637.99" fill="white"/>
</clipPath>
<clipPath id="clip1_2209_39">
<rect width="339.632" height="333.342" fill="white" transform="translate(123 970)"/>
</clipPath>
</defs>
</svg>
